<svg xmlns="http://www.w3.org/2000/svg" viewBox="0 0 143.74 149.2"><defs><style>.cls-1{fill:none;}.cls-1,.cls-2,.cls-3{stroke:#000;stroke-miterlimit:10;stroke-width:5px;}.cls-2{fill:#fff;}</style></defs><title>Asset 21</title><g id="Layer_2" data-name="Layer 2"><g id="Layer_1-2" data-name="Layer 1"><path class="cls-1" d="M108.66,88.2c4.5,13.59,7.07,29.82,2.81,45.74-16.34-2.18-30.34-10.77-41.16-20.14-11.54,8.47-26.18,15.93-42.63,16.8-3-16.21.87-32.19,6.44-45.38C22.49,76.89,10.87,65.26,5,49.87,19.45,42,35.84,40.76,50.1,42,54.45,28.33,61.9,13.7,74.71,3.32,86.65,14.68,92.93,29.87,96.18,43.81c14.3-.07,30.54,2.49,44.36,11.47C133.43,70.15,120.92,80.81,108.66,88.2Z"/><path class="cls-2" d="M93.65,107.22C89.3,120.86,81.83,135.5,69,145.88c-11.94-11.36-18.22-26.54-21.46-40.49C33.25,105.47,17,102.9,3.2,93.93,10.33,79.06,22.83,68.4,35.08,61,30.58,47.43,28,31.19,32.27,15.26,48.61,17.43,62.61,26,73.43,35.41,85,26.93,99.6,19.47,116.06,18.6c3,16.21-.86,32.19-6.43,45.38,11.62,8.34,23.25,20,29.16,35.35C124.29,107.18,107.9,108.46,93.65,107.22Z"/><path d="M106.26,31a12,12,0,0,1-.36,1.25,27.78,27.78,0,0,1-1.23,3.09,39,39,0,0,1-2.18,4c-.44.71-.91,1.42-1.41,2.12s-1,1.41-1.56,2.11-1.1,1.37-1.68,2-1.16,1.27-1.74,1.86a37.44,37.44,0,0,1-3.39,3.06A26.24,26.24,0,0,1,90,52.44c-.7.43-1.14.64-1.14.64s.1-.48.35-1.25a27,27,0,0,1,1.23-3.09,39,39,0,0,1,2.18-4c.44-.7.9-1.42,1.41-2.12s1-1.4,1.57-2.1,1.1-1.36,1.68-2,1.15-1.27,1.74-1.86a38.79,38.79,0,0,1,3.39-3,25.52,25.52,0,0,1,2.71-1.91A12,12,0,0,1,106.26,31Z"/><path d="M41.07,28.44a12.11,12.11,0,0,1,1.08.73,28.38,28.38,0,0,1,2.55,2.12,39.37,39.37,0,0,1,3.14,3.31c.53.64,1.07,1.3,1.58,2s1,1.41,1.52,2.13,1,1.47,1.39,2.22.86,1.49,1.24,2.23a37.84,37.84,0,0,1,1.86,4.17,25.33,25.33,0,0,1,1,3.17,11.48,11.48,0,0,1,.26,1.28,11.23,11.23,0,0,1-1.09-.73A25.56,25.56,0,0,1,53,49a37.89,37.89,0,0,1-3.14-3.31c-.53-.64-1.07-1.3-1.58-2s-1-1.41-1.52-2.13-1-1.47-1.39-2.22-.85-1.5-1.23-2.23a39.82,39.82,0,0,1-1.86-4.17,25.85,25.85,0,0,1-1-3.17A11.48,11.48,0,0,1,41.07,28.44Z"/><path d="M18.45,89.63s.37-.32,1-.8a26.15,26.15,0,0,1,2.81-1.77,36.31,36.31,0,0,1,4.12-2c.76-.31,1.56-.62,2.38-.89s1.66-.53,2.5-.79,1.7-.45,2.54-.63,1.69-.35,2.5-.49a38.67,38.67,0,0,1,4.54-.48,26,26,0,0,1,3.32.06c.81.06,1.3.15,1.3.15s-.37.33-1,.8a24.51,24.51,0,0,1-2.81,1.78,36.31,36.31,0,0,1-4.12,2c-.76.31-1.56.62-2.38.89s-1.66.53-2.5.78-1.7.45-2.55.63-1.68.35-2.5.49a38.35,38.35,0,0,1-4.53.47,26.24,26.24,0,0,1-3.32,0A12.93,12.93,0,0,1,18.45,89.63Z"/><path d="M69.66,130.05a11.23,11.23,0,0,1-.44-1.22,25,25,0,0,1-.82-3.22,38.09,38.09,0,0,1-.59-4.52c-.06-.83-.1-1.68-.11-2.55s0-1.74,0-2.62.08-1.75.17-2.61.19-1.71.31-2.53a37.19,37.19,0,0,1,1-4.46,25.7,25.7,0,0,1,1.08-3.14c.31-.76.54-1.19.54-1.19s.2.45.45,1.23a26.49,26.49,0,0,1,.83,3.22,36.23,36.23,0,0,1,.58,4.52c.06.83.11,1.68.11,2.54s0,1.75,0,2.62-.09,1.76-.18,2.62-.19,1.71-.31,2.52a39.44,39.44,0,0,1-1,4.47,28.53,28.53,0,0,1-1.07,3.14A12.32,12.32,0,0,1,69.66,130.05Z"/><path d="M123.93,93.84a12.65,12.65,0,0,1-1.3,0,24.89,24.89,0,0,1-3.32-.21,37.15,37.15,0,0,1-4.48-.84c-.81-.2-1.63-.42-2.45-.68s-1.66-.54-2.49-.83-1.64-.63-2.43-1-1.57-.71-2.31-1.08a37.7,37.7,0,0,1-4-2.28,24.69,24.69,0,0,1-2.65-2,11.22,11.22,0,0,1-1-.89,12.65,12.65,0,0,1,1.3,0,24.89,24.89,0,0,1,3.32.21,39,39,0,0,1,4.48.83c.8.21,1.63.42,2.45.69s1.66.55,2.48.84,1.64.63,2.43,1,1.57.7,2.31,1.08a38.5,38.5,0,0,1,4,2.27A26.27,26.27,0,0,1,123,93,12.44,12.44,0,0,1,123.93,93.84Z"/><path class="cls-3" d="M81.55,82.24a12.33,12.33,0,1,1-2-17.31A12.33,12.33,0,0,1,81.55,82.24Z"/><path class="cls-1" d="M73.43,35.41S50,58.2,60.17,78.48"/><path class="cls-1" d="M35.08,61S49.51,90.35,72,86.93"/><path class="cls-1" d="M47.57,105.39s32.37-4.65,36.05-27"/><path class="cls-1" d="M93.65,107.23S99.23,75,79.06,64.59"/><path class="cls-1" d="M109.63,64s-28.92-15.26-45.06.7"/></g></g></svg>