<svg xmlns="http://www.w3.org/2000/svg" viewBox="0 0 150.88 110.71"><defs><style>.cls-1{fill:none;stroke:#000;stroke-linecap:round;stroke-linejoin:round;stroke-width:5px;}</style></defs><title>Asset 23</title><g id="Layer_2" data-name="Layer 2"><g id="Layer_1-2" data-name="Layer 1"><path class="cls-1" d="M104.19,63.16c-11.48,4-22.49,12.29-29.14,28.08C68.5,75.68,57.82,67.45,46.64,63.34A205.13,205.13,0,0,1,52.46,40.2c4.94-15.38,12.24-30,23-37.7,10.73,7.74,18,22.33,23,37.71A200.27,200.27,0,0,1,104.19,63.16Z"/><path class="cls-1" d="M52.46,40.2a205.13,205.13,0,0,0-5.82,23.14,65.18,65.18,0,0,0-23.51-3.67C20.21,46.25,18.89,31.9,22.48,21,32.7,21.26,43.49,30.17,52.46,40.2Z"/><line class="cls-1" x1="52.47" y1="40.21" x2="52.46" y2="40.2"/><path class="cls-1" d="M127.73,59.68a67.1,67.1,0,0,0-23.54,3.48,200.27,200.27,0,0,0-5.78-22.95c9-10,19.76-18.95,30-19.22C132,31.9,130.66,46.26,127.73,59.68Z"/><path class="cls-1" d="M148.38,62.55c-21.31,46.59-60.1,45.66-60.1,45.66H62.6s-38.8.93-60.1-45.66a82.43,82.43,0,0,1,20.63-2.88,65.18,65.18,0,0,1,23.51,3.67c11.18,4.11,21.86,12.34,28.41,27.9,6.65-15.79,17.66-24,29.14-28.08a67.1,67.1,0,0,1,23.54-3.48A84.39,84.39,0,0,1,148.38,62.55Z"/><path d="M105.89,77.14s-6.61,31.21-30.45,31.21S45,77.14,45,77.14c12.11-.13,16.91,3.11,18.3,4.35a49.71,49.71,0,0,1,12.16-22,49.68,49.68,0,0,1,12.15,22C89,80.24,93.8,77,105.89,77.14Z"/></g></g></svg>