<svg xmlns="http://www.w3.org/2000/svg" viewBox="0 0 186.14 118.47"><defs><style>.cls-1{fill:none;}.cls-1,.cls-2{stroke:#000;stroke-linecap:round;stroke-linejoin:round;stroke-width:5px;}.cls-2{fill:#fff;}</style></defs><title>Asset 24</title><g id="Layer_2" data-name="Layer 2"><g id="Layer_1-2" data-name="Layer 1"><polyline class="cls-1" points="93.07 56.25 93.07 98.16 93.07 107.06"/><polyline class="cls-1" points="75.59 59.03 89.83 98.16 93.07 107.06"/><polyline class="cls-1" points="59.67 67.26 86.63 99.4 93.07 107.06"/><polyline class="cls-1" points="110.55 59.03 96.31 98.16 93.07 107.06 92.27 109.26"/><polyline class="cls-1" points="126.47 67.26 99.51 99.4 93.07 107.06"/><path class="cls-1" d="M183.64,54.78h0l-44.4,25.64a56.16,56.16,0,0,0-92.32,0L2.51,54.78h0a104.6,104.6,0,0,1,181.14,0Z"/><path class="cls-1" d="M139.23,80.42,100.64,102.7l-7.57,4.37L85.5,102.7,46.91,80.42a56.16,56.16,0,0,1,92.32,0Z"/><rect class="cls-2" x="85.51" y="98.16" width="15.13" height="17.81" rx="4.02"/></g></g></svg>