<svg xmlns="http://www.w3.org/2000/svg" viewBox="0 0 55.18 55.18"><title>Asset 18</title><g id="Layer_2" data-name="Layer 2"><g id="Layer_1-2" data-name="Layer 1"><path d="M38.85,48.2a5.53,5.53,0,0,0-5.56-4.1l-1.07-4a13.2,13.2,0,0,0,7.89-7.89l4,1.07a5.53,5.53,0,1,0,.63-2.38l-4-1.07a13.35,13.35,0,0,0-2.88-10.79l2.91-2.91A5.54,5.54,0,1,0,39,14.4l-2.92,2.91a13.38,13.38,0,0,0-10.78-2.89l-1.07-4a5.54,5.54,0,1,0-2.38.64l1.07,4a13.3,13.3,0,0,0-7.9,7.9l-4-1.07a5.55,5.55,0,1,0-.64,2.38l4,1.07a13.34,13.34,0,0,0,2.89,10.78L14.4,39a5.54,5.54,0,1,0,1.74,1.74l2.91-2.91a13.35,13.35,0,0,0,10.79,2.88l1.07,4a5.54,5.54,0,1,0,7.94,3.46Z"/></g></g></svg>