<svg xmlns="http://www.w3.org/2000/svg" viewBox="0 0 335.96 217"><defs><style>.cls-1{fill:none;stroke:#000;stroke-miterlimit:10;stroke-width:5px;}</style></defs><title>Asset 3</title><g id="Layer_2" data-name="Layer 2"><g id="Layer_1-2" data-name="Layer 1"><path class="cls-1" d="M69.23,2.5H23.7A21.2,21.2,0,0,0,2.5,23.7h0A21.2,21.2,0,0,0,23.7,44.9H228.32a21.21,21.21,0,0,1,21.21,21.2h0a21.21,21.21,0,0,1-21.21,21.2H99.58a21.2,21.2,0,0,0-21.2,21.2h0a21.2,21.2,0,0,0,21.2,21.2H296.71a21.2,21.2,0,0,1,21.2,21.2h0a21.2,21.2,0,0,1-21.2,21.2H38.43a21.2,21.2,0,0,0-21.2,21.2h0a21.2,21.2,0,0,0,21.2,21.2h69.4"/><path class="cls-1" d="M84.78,2.5H39.25a21.2,21.2,0,0,0-21.2,21.2h0a21.2,21.2,0,0,0,21.2,21.2H243.88a21.2,21.2,0,0,1,21.2,21.2h0a21.2,21.2,0,0,1-21.2,21.2H115.14a21.2,21.2,0,0,0-21.2,21.2h0a21.2,21.2,0,0,0,21.2,21.2H312.26a21.2,21.2,0,0,1,21.2,21.2h0a21.2,21.2,0,0,1-21.2,21.2H54a21.2,21.2,0,0,0-21.2,21.2h0A21.2,21.2,0,0,0,54,214.5h69.4"/></g></g></svg>