<svg xmlns="http://www.w3.org/2000/svg" viewBox="0 0 129.99 242.18"><title>Asset 10</title><g id="Layer_2" data-name="Layer 2"><g id="Layer_1-2" data-name="Layer 1"><polygon points="49.19 161.13 33.89 152.52 33.89 92.73 49.19 86.08 49.19 161.13"/><polygon points="49.19 241.89 33.89 241.89 33.89 161.13 49.19 166.84 49.19 241.89"/><polygon points="49.19 75.06 33.89 80.41 33.89 6.66 49.19 0 49.19 75.06"/><polygon points="75.29 176.68 59.99 181.48 59.99 108.87 75.29 99.49 75.29 176.68"/><polygon points="75.29 242.19 59.99 242.19 59.99 192.49 75.29 183.93 75.29 242.19"/><polygon points="75.29 93.07 59.99 102.92 59.99 31.94 75.29 25.99 75.29 93.07"/><polygon points="102.62 151.79 87.32 155.24 87.32 102.92 102.62 104.32 102.62 151.79"/><polygon points="102.62 203.38 87.32 209.01 87.32 161.13 102.62 158.34 102.62 203.38"/><polygon points="102.62 242.19 87.32 242.19 87.32 214.87 102.62 209.71 102.62 242.19"/><polygon points="102.62 101.1 87.32 97.97 87.32 20.63 102.62 14.36 102.62 101.1"/><path d="M29.91,49.24S20.73,32.72,5.75,26C5.75,26,8.8,40.67,29.91,49.24Z"/><path d="M100.69,95S116,85.14,130,86.15C130,86.15,119.93,97.14,100.69,95Z"/><path d="M28.27,55.84S17.14,46.91,4.73,46.48C4.73,46.48,11.06,55.88,28.27,55.84Z"/><path d="M120.27,71.33S107.76,78.2,102.62,89.5C102.62,89.5,113.72,87.24,120.27,71.33Z"/><path d="M112.88,112.35s-9.5,13.38-9.15,27.63C103.73,140,114.08,132.09,112.88,112.35Z"/><path d="M29.91,194.39s-7.65-12-19.25-16.46C10.66,177.93,13.62,188.86,29.91,194.39Z"/><path d="M124,221.08s-12.86-6.2-25-3.82C98.92,217.26,107.21,225,124,221.08Z"/><path d="M36.42,122.69s-6.09-14.36-17.81-21.2C18.61,101.49,19.84,113.81,36.42,122.69Z"/><path d="M4.67,119.14s18.36,7,26.31,26C31,145.14,4.67,138.72,4.67,119.14Z"/><path d="M22.37,159.06s10.8,11.7,9.76,28.33C32.13,187.39,15.34,173.27,22.37,159.06Z"/><path d="M0,200.65s14.18-7.25,29.91-1.77C29.91,198.88,11.79,211.25,0,200.65Z"/><path d="M99.06,196.72s11.17-11.34,27.83-11.09C126.89,185.63,113.59,203.07,99.06,196.72Z"/><path d="M120.06,128.09a40.82,40.82,0,0,0-23.42,18.32S117.6,144.2,120.06,128.09Z"/></g></g></svg>