<svg xmlns="http://www.w3.org/2000/svg" viewBox="0 0 163.25 118.83"><defs><style>.cls-1{fill:none;stroke:#000;stroke-linecap:round;stroke-linejoin:round;stroke-width:5px;}</style></defs><title>Asset 22</title><g id="Layer_2" data-name="Layer 2"><g id="Layer_1-2" data-name="Layer 1"><path class="cls-1" d="M57.4,53.32c-.08,2.69-.07,5.29,0,7.75.07,1.67.15,3.26.29,4.81a1.79,1.79,0,0,0,0,.23h0s0,.07,0,.1,0,.08,0,.12h0c-4.92-8.42-7.8-21.78-8.9-29.12q-.42-2.8-.57-5.45h0c-1-17.33,5.56-29.28,5.56-29.28C66.33,9.22,69.4,19.76,69.49,20.09h0C63.64,28.77,57.8,40.54,57.4,53.32Z"/><path class="cls-1" d="M57.43,61.08s.25,4,.31,5"/><path class="cls-1" d="M61.87,87.51a0,0,0,0,1,0,0"/><path class="cls-1" d="M61.87,87.51s0,0,0,0"/><path class="cls-1" d="M61.87,87.51s0,0,0,0"/><path class="cls-1" d="M61.85,87.44c-.42-1-5.69-12.71-27-17.59h0c-21.71-30-12-50.37-12-50.37,20.5,1.54,25.34,12,25.48,12.3h0q.15,2.64.57,5.45c1.1,7.34,4,20.7,8.9,29.12a98.6,98.6,0,0,0,3.51,19.17C61.46,86.2,61.66,86.84,61.85,87.44Z"/><path class="cls-1" d="M109.38,105.69a10.62,10.62,0,0,1,5.7,8.81c-17.17,6.51-32.94-6.39-32.94-6.39h-1S65.35,121,48.17,114.5a10.64,10.64,0,0,1,5.71-8.81C11.18,97.56,2.5,68.29,2.5,68.29c13.56-1.16,24.12-.31,32.31,1.56h0c21.34,4.88,26.61,16.64,27,17.59-.19-.6-.39-1.24-.58-1.92a98.6,98.6,0,0,1-3.51-19.17h0s0-.08,0-.12,0-.07,0-.1h0a1.79,1.79,0,0,1,0-.23c-.14-1.55-.22-3.14-.29-4.81-.1-2.46-.11-5.06,0-7.75.4-12.78,6.24-24.55,12.09-33.22h0A93.12,93.12,0,0,1,81.63,5.43,93.43,93.43,0,0,1,93.76,20.09h0c5.85,8.67,11.7,20.44,12.09,33.22.09,2.69.07,5.29,0,7.75-.07,1.78-.17,3.5-.32,5.15,0,0,0,.08,0,.12h0A99.27,99.27,0,0,1,102,85.52c-.19.68-.39,1.32-.57,1.92.42-1,5.68-12.71,27-17.59h0c8.19-1.87,18.75-2.72,32.31-1.56C160.75,68.29,152.08,97.56,109.38,105.69Z"/><path class="cls-1" d="M115,31.78h0q-.15,2.64-.57,5.45c-1.1,7.34-4,20.7-8.89,29.12h0s0-.08,0-.12c.15-1.65.25-3.37.32-5.15.09-2.46.11-5.06,0-7.75-.39-12.78-6.24-24.55-12.09-33.22h0c.1-.33,3.16-10.87,15.65-17.59C109.41,2.5,116,14.45,115,31.78Z"/><path class="cls-1" d="M115,31.78c.14-.33,5-10.76,25.48-12.3,0,0,9.71,20.33-12,50.37"/><path d="M81.63,29.64s.21.79.49,2.19.63,3.4.95,5.8.58,5.19.77,8.19c.09,1.5.17,3,.21,4.62s.06,3.17.08,4.77,0,3.2-.08,4.77-.12,3.12-.21,4.62c-.18,3-.45,5.79-.76,8.19s-.67,4.4-1,5.8-.49,2.19-.49,2.19-.22-.8-.5-2.19-.64-3.4-.95-5.8-.59-5.19-.77-8.19c-.09-1.5-.17-3-.21-4.62s-.06-3.17-.07-4.77,0-3.2.08-4.77.11-3.12.21-4.62c.18-3,.45-5.79.76-8.19s.67-4.4.95-5.8S81.63,29.64,81.63,29.64Z"/><path d="M17.34,76.49s.61.06,1.64.26,2.49.52,4.18,1,3.63,1.14,5.66,1.94c1,.39,2.05.82,3.09,1.29S34,82,35,82.45s2.06,1,3.06,1.59,2,1.11,2.91,1.67C42.87,86.83,44.56,88,46,89a41.35,41.35,0,0,1,3.34,2.71c.78.7,1.2,1.15,1.2,1.15s-.61-.06-1.64-.26-2.49-.51-4.18-1S41.07,90.48,39,89.69c-1-.4-2-.83-3.09-1.3s-2.08-1-3.13-1.46-2.06-1.05-3.06-1.6-2-1.11-2.9-1.67c-1.86-1.13-3.56-2.27-5-3.32s-2.56-2-3.34-2.7S17.34,76.49,17.34,76.49Z"/><path d="M50.39,65.05s-.46-.33-1.18-1a36.52,36.52,0,0,1-2.81-2.72,52.14,52.14,0,0,1-3.49-4.16c-.6-.78-1.2-1.61-1.78-2.46S40,53,39.41,52.14s-1.09-1.79-1.59-2.7-1-1.8-1.42-2.68a53.34,53.34,0,0,1-2.19-5A35.38,35.38,0,0,1,33,38.06c-.24-.92-.34-1.48-.34-1.48s.47.33,1.19,1a34.7,34.7,0,0,1,2.81,2.72,50.42,50.42,0,0,1,3.49,4.16c.6.78,1.2,1.6,1.78,2.46s1.15,1.73,1.71,2.62,1.09,1.79,1.59,2.69,1,1.8,1.42,2.69c.88,1.76,1.62,3.46,2.19,5a38.78,38.78,0,0,1,1.2,3.73C50.3,64.49,50.39,65.05,50.39,65.05Z"/><path d="M61.52,34.87a8.4,8.4,0,0,1-.7-.59,12.26,12.26,0,0,1-1.53-1.65,16.6,16.6,0,0,1-1.62-2.52c-.25-.47-.49-1-.7-1.48s-.4-1.05-.59-1.58-.33-1.08-.44-1.63a15.22,15.22,0,0,1-.31-1.61,16.34,16.34,0,0,1-.15-3,13.83,13.83,0,0,1,.28-2.24A7.42,7.42,0,0,1,56,17.7a7.71,7.71,0,0,1,.71.58,13.13,13.13,0,0,1,1.53,1.66,16.48,16.48,0,0,1,1.62,2.51c.24.48.49,1,.69,1.49s.4,1,.59,1.58.32,1.08.44,1.62a15.83,15.83,0,0,1,.3,1.62,16.34,16.34,0,0,1,.15,3A12.92,12.92,0,0,1,61.76,34,8.2,8.2,0,0,1,61.52,34.87Z"/><path d="M145.92,76.49s-.42.45-1.21,1.15-1.92,1.66-3.34,2.7-3.11,2.19-5,3.32c-.93.56-1.91,1.13-2.91,1.67s-2,1.07-3.06,1.6-2.08,1-3.13,1.46-2.07.9-3.09,1.3c-2,.79-4,1.45-5.65,1.94s-3.15.81-4.18,1-1.65.26-1.65.26.42-.45,1.21-1.15A40.91,40.91,0,0,1,117.27,89c1.42-1,3.11-2.2,5-3.32.93-.56,1.9-1.13,2.9-1.67s2-1.07,3.07-1.59,2.08-1,3.13-1.46,2.07-.9,3.09-1.29c2-.8,4-1.45,5.65-1.94s3.15-.82,4.18-1S145.92,76.49,145.92,76.49Z"/><path d="M112.86,65.05s.1-.56.35-1.48a36.14,36.14,0,0,1,1.2-3.73,51.85,51.85,0,0,1,2.18-5c.44-.89.91-1.79,1.42-2.69s1-1.8,1.59-2.69,1.12-1.78,1.72-2.62,1.18-1.68,1.77-2.46a52.48,52.48,0,0,1,3.49-4.16,34.56,34.56,0,0,1,2.82-2.72c.72-.63,1.18-1,1.18-1s-.09.56-.34,1.48a35.38,35.38,0,0,1-1.2,3.73,53.08,53.08,0,0,1-2.18,5c-.45.88-.91,1.79-1.43,2.68s-1,1.8-1.59,2.7-1.12,1.76-1.71,2.61-1.18,1.68-1.78,2.46c-1.2,1.57-2.4,3-3.49,4.16s-2.09,2.09-2.81,2.72S112.86,65.05,112.86,65.05Z"/><path d="M101.73,34.87a7.17,7.17,0,0,1-.23-.89,13.83,13.83,0,0,1-.28-2.24,16.39,16.39,0,0,1,.16-3c.07-.53.17-1.08.29-1.62s.29-1.08.45-1.62.36-1.07.58-1.58.45-1,.7-1.49A16.48,16.48,0,0,1,105,19.94a12.43,12.43,0,0,1,1.53-1.66,6.36,6.36,0,0,1,.71-.58,7.42,7.42,0,0,1,.24.89,12.92,12.92,0,0,1,.27,2.24,16.34,16.34,0,0,1-.15,3c-.08.53-.17,1.08-.3,1.61s-.29,1.09-.45,1.63-.36,1.07-.59,1.58a14.35,14.35,0,0,1-.7,1.48A16.58,16.58,0,0,1,104,32.63a12.94,12.94,0,0,1-1.53,1.65C102,34.66,101.73,34.87,101.73,34.87Z"/></g></g></svg>