<svg xmlns="http://www.w3.org/2000/svg" viewBox="0 0 247.68 176.63"><title>Asset 11</title><g id="Layer_2" data-name="Layer 2"><g id="Layer_1-2" data-name="Layer 1"><path d="M247.64,117.71a.25.25,0,0,0,0-.08c-2.78-16.76-12-30-25.41-36.49-15.07-7.24-33.61-5.47-52.2,5-15.52,8.73-28.34,7-37.18,3.15a33.23,33.23,0,0,0-.31-8.23h0a28.35,28.35,0,0,0-24.75-49.84,27.41,27.41,0,0,0-15.92-8.9,27.87,27.87,0,0,0-3.64-.36A39.38,39.38,0,0,0,68.36,3.76,48.77,48.77,0,0,0,4.61,30.07a60.2,60.2,0,0,0,7.45,59.22c6.46,36.58,29,63.74,54.72,77.16a85.82,85.82,0,0,0,39.73,10.18A72,72,0,0,0,161,152.09c27.07-30.47,47.74-37.53,60.29-38.09,12.79-.56,20,5.15,21.16,6.17.06.06.1.11.16.16a1.45,1.45,0,0,0,.23.19,3.1,3.1,0,0,0,.59.37,3.11,3.11,0,0,0,1.24.27,1.9,1.9,0,0,0,.41,0,2.42,2.42,0,0,0,.68-.17l.28-.13a1.57,1.57,0,0,0,.31-.18,3,3,0,0,0,1.06-1.31,3.4,3.4,0,0,0,.12-.34,2.57,2.57,0,0,0,.08-.4A2.89,2.89,0,0,0,247.64,117.71ZM90.87,28.15a21.4,21.4,0,0,1,13.54,8.3,3,3,0,0,0,3.35,1,21.31,21.31,0,0,1,3.67-1,20.82,20.82,0,0,1,3.88-.34,22.4,22.4,0,0,1,15.56,38.51,34.37,34.37,0,0,0-4.35-8.14A42,42,0,0,0,91.81,49a39.36,39.36,0,0,0-1-20.89Zm130.46,79.9c-20,.78-41.78,14.27-64.73,40.08-21.58,24.29-55.77,29.41-87.08,13.06-21.86-11.43-41.31-33.44-49.38-63.07a108.09,108.09,0,0,1-2.45-11.24A54.38,54.38,0,0,1,10.1,32.35a42.8,42.8,0,0,1,56-23.1A33.42,33.42,0,0,1,81.7,22.48a33.77,33.77,0,0,1,2.57,5c.08.18.15.36.22.54a33.24,33.24,0,0,1,1,21.58,31.6,31.6,0,0,1-1.27,3.65,26.35,26.35,0,0,1-34.42,14.2A20.07,20.07,0,0,1,43,62.82l-.21-.21a20.67,20.67,0,0,1-4-6.24,20.32,20.32,0,0,1,0-15.67A15.8,15.8,0,0,1,59.4,32.18a3,3,0,1,0,2.28-5.48,21.75,21.75,0,0,0-28.4,11.72,26.25,26.25,0,0,0,0,20.22,26.65,26.65,0,0,0,4.51,7.3C36.53,94.09,50.91,121,73.85,133.22a60.43,60.43,0,0,0,28.46,7.06c14,0,31.34-4.7,51-19.73,20.58-15.75,39.88-22.34,57.35-19.58A48.74,48.74,0,0,1,230,108.58,42.63,42.63,0,0,0,221.33,108.05Zm-9.64-12.93c-19.16-3.06-40,3.9-62,20.71-25.37,19.4-51.31,23.73-73,12.15-19.67-10.48-32.45-32.9-33-57a26.46,26.46,0,0,0,3.89,2A32.27,32.27,0,0,0,89.73,55.53c.07-.16.13-.31.19-.48a36.66,36.66,0,0,1,8.35.39A35.79,35.79,0,0,1,121.7,70,27.9,27.9,0,0,1,127,86.18a28.78,28.78,0,0,1-.36,4.79c-.09.52-.19,1-.31,1.55a28,28,0,0,1-11.06,16.81,22,22,0,0,1-30.67-5,17,17,0,0,1,3.86-23.71,13,13,0,0,1,18.14,3,3,3,0,0,0,4.82-3.47A18.91,18.91,0,0,0,85,75.8a22.91,22.91,0,0,0-5.21,32A27.66,27.66,0,0,0,98,119a28,28,0,0,0,4.55.38,27.7,27.7,0,0,0,16.25-5.27,33.75,33.75,0,0,0,13.06-19c10.15,4,24.35,5.6,41.11-3.82s33.45-11.18,46.71-4.8c8.72,4.19,15.29,11.51,19.12,21.12A55.84,55.84,0,0,0,211.69,95.12Z"/><path d="M247.65,118.59a2.89,2.89,0,0,0,0-.88A2.61,2.61,0,0,1,247.65,118.59Z"/></g></g></svg>