<svg xmlns="http://www.w3.org/2000/svg" viewBox="0 0 136.94 138.17"><title>Asset 25</title><g id="Layer_2" data-name="Layer 2"><g id="Layer_1-2" data-name="Layer 1"><path d="M93.54,24.29c-1.25,2.34-23.3,41.38-24.46,40.77s19-40.66,20.29-43,3.19-3.72,4.34-3.11S94.79,22,93.54,24.29Z"/><path d="M58.13,17.67c.55,2.59,8.75,46.68,7.47,47s-11.55-43.38-12.09-46,0-4.91,1.32-5.18S57.59,15.08,58.13,17.67Z"/><path d="M26.76,35.36c2.08,1.63,36.7,30.13,35.9,31.16S25.92,40.71,23.84,39.08s-3.12-3.79-2.31-4.81S24.68,33.73,26.76,35.36Z"/><path d="M14.09,69.08c2.64-.09,47.49-.52,47.53.79s-44.73,3.85-47.38,3.94-4.82-.9-4.86-2.21S11.44,69.17,14.09,69.08Z"/><path d="M26.06,103.05C28,101.28,62.11,72.13,63,73.11S31.19,104.8,29.22,106.57,25,109,24.07,108,24.09,104.82,26.06,103.05Z"/><path d="M57.07,121.38c.37-2.62,7.74-46.86,9-46.67s-4,44.72-4.35,47.34-1.72,4.59-3,4.41S56.69,124,57.07,121.38Z"/><path d="M92.6,115.49c-1.4-2.24-24.19-40.87-23.07-41.56S95.22,110.75,96.62,113s1.63,4.63.52,5.32S94,117.74,92.6,115.49Z"/><path d="M116,88.14c-2.52-.82-44.81-15.76-44.4-17S115,82.82,117.51,83.64s4.22,2.5,3.81,3.74S118.55,89,116,88.14Z"/><path d="M116.41,52.12C114,53.11,72,68.85,71.47,67.63s40.72-18.91,43.17-19.9,4.84-.8,5.33.41S118.86,51.14,116.41,52.12Z"/><path d="M78.48,5.8c-.42,3-8.83,53.43-10.3,53.23s4.53-51,5-54,2-5.24,3.44-5S78.91,2.81,78.48,5.8Z"/><path d="M34.8,13.2c1.59,2.56,27.59,46.61,26.32,47.4s-29.3-42-30.9-44.55-1.86-5.28-.59-6.06S33.21,10.64,34.8,13.2Z"/><path d="M6.1,46.94c2.87.94,51.09,18,50.63,19.39S7.29,53,4.42,52.07-.39,49.23.07,47.81,3.23,46,6.1,46.94Z"/><path d="M5.8,91.24c2.8-1.12,50.69-19.07,51.25-17.69S10.61,95.12,7.81,96.25s-5.51.91-6.07-.47S3,92.37,5.8,91.24Z"/><path d="M34.05,125.37c1.42-2.66,26.57-47.19,27.89-46.49s-21.71,46.37-23.13,49-3.64,4.25-5,3.55S32.63,128,34.05,125.37Z"/><path d="M77.62,133.35c-.62-2.95-10-53.23-8.52-53.54s13.18,49.48,13.8,52.43-.05,5.6-1.51,5.9S78.25,136.31,77.62,133.35Z"/><path d="M116.14,111.46c-2.38-1.86-41.86-34.36-40.95-35.54s41.9,29.44,44.27,31.3,3.56,4.32,2.64,5.49S118.51,113.33,116.14,111.46Z"/><path d="M131.57,69.94c-3,.1-54.16.58-54.21-.91s51-4.38,54-4.49,5.5,1,5.55,2.52S134.58,69.84,131.57,69.94Z"/><path d="M116.69,28.21c-2.24,2-41.11,35.25-42.1,34.14s36.26-36.14,38.5-38.16S118,21.44,119,22.55,118.94,26.19,116.69,28.21Z"/></g></g></svg>