<svg xmlns="http://www.w3.org/2000/svg" viewBox="0 0 343.51 150.8"><defs><style>.cls-1{fill:none;stroke:#000;stroke-miterlimit:10;stroke-width:5px;}</style></defs><title>Asset 2</title><g id="Layer_2" data-name="Layer 2"><g id="Layer_1-2" data-name="Layer 1"><path class="cls-1" d="M341,133.73A14.58,14.58,0,0,1,326.8,148.3H86a14.58,14.58,0,0,1-.37-29.16h72.71a14.57,14.57,0,0,0,0-29.14H43.72a14.58,14.58,0,0,1,.37-29.15H69.4a14.59,14.59,0,0,0,0-29.17H17.09a14.59,14.59,0,1,1,0-29.17h279a14.59,14.59,0,0,1,0,29.17h-145a14.59,14.59,0,1,0,0,29.17h124A14.58,14.58,0,0,1,275.43,90H255.34a14.57,14.57,0,0,0,0,29.14h71.08A14.59,14.59,0,0,1,341,133.73Z"/></g></g></svg>