<svg xmlns="http://www.w3.org/2000/svg" viewBox="0 0 123.63 303.22"><defs><style>.cls-1{fill:none;stroke:#000;stroke-linecap:round;stroke-linejoin:round;stroke-width:4px;}</style></defs><title>Asset 6</title><g id="Layer_2" data-name="Layer 2"><g id="Layer_1-2" data-name="Layer 1"><path class="cls-1" d="M121.63,164.68A59.78,59.78,0,1,1,73.52,106,59.82,59.82,0,0,1,121.63,164.68Z"/><path class="cls-1" d="M80.37,164.68c0,33-8.31,59.81-18.55,59.81s-18.56-26.78-18.56-59.81,8.31-59.82,18.56-59.82S80.37,131.64,80.37,164.68Z"/><path class="cls-1" d="M104.67,164.68c0,33-19.19,59.81-42.85,59.81S19,197.71,19,164.68s19.18-59.82,42.85-59.82S104.67,131.64,104.67,164.68Z"/><polyline class="cls-1" points="76.66 106.72 76.66 95.34 61.82 95.34 61.81 95.34 46.98 95.34 46.98 106.72"/><polyline class="cls-1" points="76.66 223.23 76.66 234.05 61.82 234.05 61.81 234.05 46.98 234.05 46.98 223.23"/><path class="cls-1" d="M54.31,95.34a7.51,7.51,0,1,1,15,0"/><path class="cls-1" d="M69.67,234.63a7.85,7.85,0,0,1-15.7,0"/><line class="cls-1" x1="61.81" y1="87.83" x2="61.81" y2="2"/><polyline class="cls-1" points="61.82 242.48 61.82 261.31 53.97 271.78 61.81 271.78"/><polyline class="cls-1" points="69.66 271.78 69.66 301.22 61.8 301.22 61.82 301.22 53.97 301.22 53.97 271.78"/><polyline class="cls-1" points="61.81 271.78 53.96 271.78 61.81 261.31 61.81 242.48 61.81 261.31 69.66 271.78 61.81 271.78"/></g></g></svg>