<svg xmlns="http://www.w3.org/2000/svg" viewBox="0 0 123.82 123.82"><title>Asset 26</title><g id="Layer_2" data-name="Layer 2"><g id="Layer_1-2" data-name="Layer 1"><path d="M72.75,39.3c-.78,2.22-5.39,10.14-8,14.63.72-5.17,2-14.24,2.83-16.45,1.06-3,3.18-4.69,4.42-4.26S73.81,36.26,72.75,39.3Z"/><path d="M47.75,41.22C49.28,43,53.84,51,56.4,55.5c-4.12-3.21-11.31-8.9-12.84-10.68-2.1-2.44-2.46-5.09-1.48-6S45.65,38.78,47.75,41.22Z"/><path d="M36.91,63.83c2.31-.44,11.48-.41,16.7-.35-4.84,2-13.36,5.34-15.67,5.78-3.17.59-5.65-.42-5.89-1.7S33.74,64.42,36.91,63.83Z"/><path d="M51.07,84.51c.78-2.21,5.39-10.13,8-14.63-.72,5.17-2.06,14.24-2.84,16.46-1.06,3-3.18,4.68-4.41,4.25S50,87.56,51.07,84.51Z"/><path d="M76.07,82.6c-1.53-1.78-6.09-9.74-8.65-14.29,4.12,3.21,11.3,8.9,12.84,10.68,2.1,2.45,2.46,5.1,1.47,6S78.17,85,76.07,82.6Z"/><path d="M86.91,60c-2.31.44-11.48.41-16.7.34,4.84-2,13.36-5.33,15.67-5.77,3.17-.6,5.65.41,5.89,1.7S90.07,59.39,86.91,60Z"/><path d="M58.52,60.72s-39-9.78-43.07-11.2-6.83-4.12-6.16-6,4.5-2.29,8.57-.86S58.52,60.72,58.52,60.72Z"/><path d="M59.19,64.25S31.22,93.14,28,96s-7,3.85-8.3,2.32.27-5,3.54-7.85S59.19,64.25,59.19,64.25Z"/><path d="M62.58,65.44s11,38.66,11.83,42.9-.16,8-2.14,8.34-4.23-2.75-5-7S62.58,65.44,62.58,65.44Z"/><path d="M65.29,63.09s39,9.78,43.08,11.21,6.82,4.12,6.16,6-4.5,2.29-8.57.87S65.29,63.09,65.29,63.09Z"/><path d="M64.63,59.57s28-28.89,31.24-31.7,7-3.85,8.29-2.33-.26,5.05-3.53,7.86S64.63,59.57,64.63,59.57Z"/><path d="M61.24,58.38s-11-38.67-11.83-42.9.15-8,2.14-8.35,4.23,2.76,5,7S61.24,58.38,61.24,58.38Z"/><path d="M81.31,11.9C80.23,15,73,30.31,73,30.31s3.88-16.52,5-19.6,2.7-5.31,3.64-5S82.39,8.81,81.31,11.9Z"/><path d="M68.16,7.21c-.29,3.9-3.94,23.86-3.94,23.86s-.63-20.28-.34-24.18,1.49-7,2.67-6.89S68.45,3.32,68.16,7.21Z"/><path d="M91.12,15.25c-2.2,3.23-11.79,21.11-11.79,21.11S92.47,20.89,94.67,17.67s3.19-6.39,2.21-7.05S93.32,12,91.12,15.25Z"/><path d="M28.3,20.1c2.13,2.48,11.77,16.43,11.77,16.43S27.71,24.91,25.58,22.44s-3.25-5-2.5-5.65S26.17,17.62,28.3,20.1Z"/><path d="M17.67,29.15c3.22,2.2,18.69,15.34,18.69,15.34s-17.88-9.6-21.11-11.8-5.3-4.78-4.63-5.76S14.44,27,17.67,29.15Z"/><path d="M36.11,13.28C37.8,16.8,48.49,34,48.49,34S41.67,14.94,40,11.42,36,5.46,35,6,34.41,9.76,36.11,13.28Z"/><path d="M8.9,70.11c3.2-.61,20.11-2,20.11-2S12.77,73,9.56,73.64,3.6,74,3.42,73,5.69,70.72,8.9,70.11Z"/><path d="M11.42,83.84C14.93,82.15,34,75.32,34,75.32S16.8,86,13.28,87.7,6.49,89.91,6,88.84,7.9,85.54,11.42,83.84Z"/><path d="M6.89,59.94c3.9.29,24.18-.34,24.18-.34s-20-3.65-23.85-4S.09,56.09,0,57.27,3,59.64,6.89,59.94Z"/><path d="M42.51,111.92c1.08-3.08,8.34-18.41,8.34-18.41S47,110,45.89,113.1s-2.71,5.32-3.64,5S41.43,115,42.51,111.92Z"/><path d="M55.66,116.6c.29-3.89,3.93-23.85,3.93-23.85s.64,20.28.35,24.17-1.49,7-2.67,6.9S55.37,120.5,55.66,116.6Z"/><path d="M32.69,108.57c2.21-3.23,11.8-21.11,11.8-21.11s-13.14,15.46-15.34,18.69-3.19,6.39-2.21,7S30.49,111.79,32.69,108.57Z"/><path d="M95.52,103.71c-2.13-2.47-11.78-16.42-11.78-16.42s12.37,11.61,14.5,14.09,3.25,5,2.49,5.65S97.65,106.19,95.52,103.71Z"/><path d="M106.15,94.67c-3.23-2.2-18.69-15.34-18.69-15.34s17.88,9.59,21.1,11.79,5.31,4.78,4.64,5.76S109.37,96.87,106.15,94.67Z"/><path d="M87.71,110.54C86,107,75.33,89.77,75.33,89.77s6.82,19.11,8.51,22.63,3.94,6,5,5.44S89.4,114.06,87.71,110.54Z"/><path d="M114.92,53.71c-3.21.6-20.12,2-20.12,2s16.24-4.9,19.45-5.51,6-.31,6.15.66S118.13,53.1,114.92,53.71Z"/><path d="M112.4,40c-3.52,1.69-22.63,8.51-22.63,8.51S107,37.8,110.54,36.11s6.79-2.2,7.3-1.13S115.92,38.28,112.4,40Z"/><path d="M116.92,63.88c-3.89-.29-24.17.34-24.17.34s20,3.65,23.85,3.94,7.13-.43,7.21-1.61S120.82,64.17,116.92,63.88Z"/></g></g></svg>