<svg xmlns="http://www.w3.org/2000/svg" viewBox="0 0 262.9 139.03"><title>Asset 14</title><g id="Layer_2" data-name="Layer 2"><g id="Layer_1-2" data-name="Layer 1"><path d="M262,73.93a34.07,34.07,0,0,0-15.33-21.35c-1.22-.75-2.44-1.44-3.65-2l-.23-.11v-.25c0-.21,0-.42,0-.63a31.46,31.46,0,0,0-25.95-30.71l-.28,0,0-.27A22.26,22.26,0,0,0,210,6.26,22,22,0,0,0,194.41,0H194a27.13,27.13,0,0,0-19.15,8.38l-.18.19-.26-.12a45.22,45.22,0,0,0-63.26,31.49l-.06.29h-.29C82.8,42,64,67.68,51.63,84.68c-5.81,8-14.17,12-24.83,12C15.36,96.68,5.23,92,4.11,91.43a3,3,0,0,0-3.43.73A2.84,2.84,0,0,0,.56,95.7c15.54,21,32.18,31.71,49.44,31.71a47.22,47.22,0,0,0,23.24-6.54,63.74,63.74,0,0,1,21.24-7.35l.28,0,.13.24a52.93,52.93,0,0,0,13,15.55,43.48,43.48,0,0,0,60.26-5.19l.16-.19.25.07a52.09,52.09,0,0,0,52-13.87l.2-.21.26.13a28,28,0,0,0,36.7-10.13A34.16,34.16,0,0,0,262,73.93ZM252.9,96.87a22.34,22.34,0,0,1-30.68,7.24L222,104c-.18-.12-.35-.24-.54-.35l-.34-.23a17.3,17.3,0,0,1-4.6-23.16A13.26,13.26,0,0,1,234.82,76a2.86,2.86,0,0,0,3.93-.94,2.8,2.8,0,0,0,.35-2.17,2.87,2.87,0,0,0-1.28-1.76,19,19,0,0,0-26.13,6.12,23.05,23.05,0,0,0,4,29.13l.31.27-.3.29a46.64,46.64,0,0,1-32.58,13.4,45.71,45.71,0,0,1-10.73-1.26l-.51-.12.26-.46A35.27,35.27,0,0,0,164,73.39a28.45,28.45,0,0,0-18.21-6.51c-1,0-2,.05-2.93.14a28.62,28.62,0,0,0-19.43,10.47,23.66,23.66,0,0,0,3.38,33.24A19.48,19.48,0,0,0,154.18,108a2.88,2.88,0,0,0,.62-2.11,2.86,2.86,0,0,0-5.06-1.51,13.78,13.78,0,0,1-19.35,2,18,18,0,0,1-2.58-25.23,23.06,23.06,0,0,1,15.58-8.37c.79-.08,1.6-.13,2.38-.13a22.83,22.83,0,0,1,14.57,5.21A29.61,29.61,0,0,1,166,117.52c-.43.64-.91,1.28-1.44,1.94s-.85,1-1.21,1.42l-.3.32a37.8,37.8,0,0,1-51.57,3.64,47.94,47.94,0,0,1-13.27-17.15l-.16-.36-.41,0c-1.65.17-3.21.39-4.74.67a68.78,68.78,0,0,0-22.48,7.87,42,42,0,0,1-20.57,5.84c-12.78,0-25.46-7-37.71-20.76l-.84-1,1.23.31a58.89,58.89,0,0,0,14.34,1.88c12.6,0,22.48-4.76,29.35-14.16,16.16-22.12,32.68-42,56.87-42.23h.57a51.88,51.88,0,0,1,13.54,1.94,2.5,2.5,0,0,0,.72.1,2.86,2.86,0,0,0,.78-5.62,57.27,57.27,0,0,0-11.31-2l-.46,0,.11-.45a39.44,39.44,0,0,1,54.65-26.27c.73.32,1.48.69,2.27,1.12a3,3,0,0,0,3.58-.72l.07-.08c.43-.53.88-1,1.32-1.49a21.42,21.42,0,0,1,15.16-6.64h.46A16.45,16.45,0,0,1,206,10.37a16.67,16.67,0,0,1,4.81,8.76,17.17,17.17,0,0,1,.32,3,10.43,10.43,0,0,1-.06,1.4A12.79,12.79,0,0,1,198.6,35.14h-.14a9.76,9.76,0,0,1-9.73-9.47,2.86,2.86,0,0,0-2.92-2.82,2.89,2.89,0,0,0-2.8,2.91A15.5,15.5,0,0,0,198.4,40.86h.31a18.55,18.55,0,0,0,17.95-15.79l.06-.42.4.09A25.37,25.37,0,0,1,237.06,49a3.7,3.7,0,0,1,0,.48,25.6,25.6,0,0,1-.33,4.1l-.08.47.44.16a32.94,32.94,0,0,1,4.22,1.88c.73.38,1.51.82,2.32,1.31a28.7,28.7,0,0,1,9.25,39.44Z"/></g></g></svg>