<svg xmlns="http://www.w3.org/2000/svg" viewBox="0 0 402.93 309.52"><defs><style>.cls-1{fill:none;}.cls-1,.cls-2{stroke:#000;stroke-miterlimit:10;stroke-width:5px;}.cls-2{fill:#fff;}</style></defs><title>Asset 8</title><g id="Layer_2" data-name="Layer 2"><g id="Layer_1-2" data-name="Layer 1"><rect class="cls-1" x="77.32" y="67.44" width="24.55" height="189.73"/><rect class="cls-1" x="301.05" y="67.44" width="24.55" height="189.73"/><path class="cls-1" d="M398.47,3.15,385.78,27.42S377,28.24,362,29.37c-32.62,2.45-94.76,6.33-160.54,6.33S73.56,31.82,40.93,29.37c-15-1.13-23.78-1.95-23.78-1.95L4.47,3.15s55.52,7.74,197,7.74S398.47,3.15,398.47,3.15Z"/><path class="cls-1" d="M333.05,57.33V67.44H293.61V59.75l7.44-.34c10.1-.49,18.23-1,24.56-1.49C328.44,57.72,330.91,57.52,333.05,57.33Z"/><path class="cls-1" d="M362,29.37,343.47,56.28s-3.28.44-10.42,1c-2.14.19-4.61.39-7.44.59-6.33.48-14.46,1-24.56,1.49l-7.44.34c-22.15,1-52.39,1.74-92.15,1.74s-70-.78-92.15-1.74l-7.44-.34c-10.09-.49-18.22-1-24.55-1.49-2.83-.21-5.3-.41-7.44-.59-7.13-.62-10.42-1-10.42-1L40.93,29.37c32.63,2.45,94.77,6.33,160.53,6.33S329.38,31.82,362,29.37Z"/><rect class="cls-2" x="40.93" y="122.5" width="321.07" height="22.32"/><rect class="cls-2" x="69.88" y="257.17" width="39.43" height="49.85"/><path class="cls-1" d="M109.31,59.75v7.69H69.88V57.33c2.14.18,4.61.38,7.44.59,6.33.48,14.46,1,24.55,1.49Z"/><rect class="cls-2" x="293.61" y="257.17" width="39.43" height="49.85"/><rect class="cls-2" x="186.03" y="51.82" width="31.47" height="81.84" rx="8.56"/></g></g></svg>