<svg xmlns="http://www.w3.org/2000/svg" viewBox="0 0 236.96 143.51"><title>Asset 16</title><g id="Layer_2" data-name="Layer 2"><g id="Layer_1-2" data-name="Layer 1"><path d="M236.55,26.14A31.76,31.76,0,0,0,199.75.5a38.71,38.71,0,0,0-25.65,17,45.07,45.07,0,0,0-15.63-2.81,44.33,44.33,0,0,0-9.15.95,44.36,44.36,0,0,0-48.8.21,54.53,54.53,0,0,0-24.1,49.92A132.68,132.68,0,0,0,55.15,89.93c-15,21.6-50.54,5.79-50.88,5.63a3,3,0,0,0-3.55,4.72c.38.42,30.82,35.27,67.3,35.27a55.5,55.5,0,0,0,26.32-6.64c20.86-11.06,39.14-12.84,52.52-11.69a46.74,46.74,0,0,0,5,7.93,47.58,47.58,0,0,0,31.92,18.06,39.67,39.67,0,0,0,4.84.3,39,39,0,0,0,38.58-34.21,31.63,31.63,0,0,0-2.6-17,78.63,78.63,0,0,0-.55-39.17,26.08,26.08,0,0,0,12.46-27Zm-9.22,16a20.13,20.13,0,0,1-5.15,5.1,19.64,19.64,0,0,1-5.43,2.58,19.22,19.22,0,0,1-2.27.54,15.35,15.35,0,0,1-17.81-12.41,11.68,11.68,0,0,1,9.44-13.55,8.72,8.72,0,0,1,10.14,7.06,3,3,0,1,0,5.94-1.06A14.74,14.74,0,0,0,205,18.45,17.74,17.74,0,0,0,190.72,39a21.36,21.36,0,0,0,24.82,17.28,24.56,24.56,0,0,0,3-.72A72.85,72.85,0,0,1,220,84.92a31.64,31.64,0,0,0-20.38-11,26,26,0,0,0-29,22.65,21.4,21.4,0,0,0,18.64,23.87A17.77,17.77,0,0,0,209,105a3,3,0,0,0-6-.74,11.71,11.71,0,0,1-13,10.2,15.34,15.34,0,0,1-13.39-17.15,20,20,0,0,1,22.26-17.39,25.8,25.8,0,0,1,22.48,22.91h0a25.76,25.76,0,0,1-.06,5.75,32.94,32.94,0,0,1-36.7,28.66,41.6,41.6,0,0,1-27.91-15.79,39.31,39.31,0,0,1-2.28-3.23,40.18,40.18,0,0,1-3.53-6.79c-2.08-.26-4.3-.47-6.65-.57-13.91-.68-32,1.81-52.67,12.74-30.9,16.37-62.09-5-77.07-18.26,13.35,3.32,34,4.87,45.66-11.95A131.83,131.83,0,0,1,77.47,72.84c1.74-1.63,3.49-3.2,5.28-4.66A47,47,0,0,1,82.27,61a48.38,48.38,0,0,1,21.6-40.13,38.08,38.08,0,0,1,53,10.59A29.92,29.92,0,0,1,148.54,73a23.37,23.37,0,0,1-32.39-6.47,18.08,18.08,0,0,1,5-25.09,13.9,13.9,0,0,1,19.23,3.85,3,3,0,1,0,5-3.35,19.91,19.91,0,0,0-27.59-5.5,23.86,23.86,0,0,0-10.27,15.32c-.12.64-.23,1.28-.31,1.92a24,24,0,0,0,3.9,16.2A29.36,29.36,0,0,0,151.88,78a36,36,0,0,0,10-49.91,43.65,43.65,0,0,0-6.08-7.29c.91-.06,1.8-.08,2.7-.08a39.18,39.18,0,0,1,12.68,2.11,39.7,39.7,0,0,1,5.52,2.4A33,33,0,0,1,200.8,6.43a25.73,25.73,0,0,1,29.81,20.78A19.87,19.87,0,0,1,227.33,42.13Z"/></g></g></svg>