<svg xmlns="http://www.w3.org/2000/svg" viewBox="0 0 247.66 295.44"><defs><style>.cls-1{fill:#fff;}</style></defs><title>Asset 9</title><g id="Layer_2" data-name="Layer 2"><g id="Layer_1-2" data-name="Layer 1"><path d="M156.28,31.52s.11.29.31.85.45,1.34.76,2.36c.61,2.05,1.42,5,2.17,8.89A112.18,112.18,0,0,1,160.94,76a113.57,113.57,0,0,1-4.22,21.41,120.84,120.84,0,0,1-9.4,22.55,133.81,133.81,0,0,1-14.66,21.61l-3.73,4.83L125.88,151c-.94,1.7-1.94,3.36-2.84,5.08l-1.26,2.61a28.74,28.74,0,0,0-1.21,2.65,87.86,87.86,0,0,0-6.08,22.32,109.88,109.88,0,0,0-.71,22.73,162.69,162.69,0,0,0,8.38,40.18,191.52,191.52,0,0,0,11.38,26.9c1.59,3.12,3,5.44,3.87,7s1.42,2.34,1.42,2.34l-21.61,12.61s-.56-1.05-1.59-3-2.43-4.81-4-8.47a214.54,214.54,0,0,1-10.93-30.9,201.61,201.61,0,0,1-4.6-21.42A167.21,167.21,0,0,1,94,207.09a128.58,128.58,0,0,1,2.45-26.54,105.5,105.5,0,0,1,8.93-26.31c.47-1.07,1.08-2.08,1.64-3.11l1.71-3.06c1.22-2,2.53-3.93,3.79-5.88,1.44-1.93,2.91-3.9,4.35-5.74l4.34-5A118.5,118.5,0,0,0,135.41,113,107.43,107.43,0,0,0,145,93.5a100.85,100.85,0,0,0,4.93-18.94A99.84,99.84,0,0,0,151.23,58a101.05,101.05,0,0,0-.84-12.84c-.47-3.54-1-6.28-1.46-8.11-.21-.91-.4-1.59-.52-2s-.19-.64-.19-.64Z"/><path d="M189.16,175.58l-.33-.45c-.25-.34-.52-.77-.88-1.32s-.77-1.21-1.2-2-.91-1.65-1.39-2.61-1-2-1.48-3.13-1-2.31-1.43-3.57c-.23-.62-.46-1.26-.69-1.9s-.41-1.31-.62-2c-.44-1.32-.75-2.7-1.1-4.06s-.58-2.76-.86-4.11-.4-2.72-.59-4-.22-2.57-.33-3.77-.09-2.33-.12-3.37-.08-2,0-2.85.07-1.58.1-2.19c.06-1.21.09-1.9.09-1.9l4.29.14s0,.66.08,1.8c0,.56.06,1.26.1,2.05s.17,1.68.26,2.64.18,2,.41,3.12.36,2.25.63,3.43.54,2.4.88,3.62.69,2.45,1.13,3.66.84,2.42,1.35,3.57l.72,1.72c.26.56.52,1.11.78,1.64.48,1.09,1.07,2.09,1.57,3s1,1.84,1.55,2.62,1,1.52,1.42,2.13.83,1.13,1.14,1.55.59.74.73.89l.27.31Z"/><path class="cls-1" d="M246.91,163.24h-4.48a18.49,18.49,0,0,0-37,0H201a23,23,0,0,1,45.95,0Z"/><path d="M247.66,164h-6v-.75a17.74,17.74,0,0,0-35.48,0V164h-6v-.75a23.72,23.72,0,0,1,47.44,0Zm-4.5-1.49h3a22.23,22.23,0,0,0-44.44,0h3a19.23,19.23,0,0,1,38.44,0Z"/><path class="cls-1" d="M242.43,163.24h-4.49a14,14,0,0,0-28,0h-4.49a18.49,18.49,0,0,1,37,0Z"/><path d="M243.17,164h-6v-.75a13.26,13.26,0,0,0-26.51,0V164h-6v-.75a19.23,19.23,0,0,1,38.46,0Zm-4.5-1.49h3a17.75,17.75,0,0,0-35.46,0h3a14.75,14.75,0,0,1,29.46,0Z"/><path class="cls-1" d="M237.94,163.24h-4.49a9.52,9.52,0,0,0-19,0h-4.48a14,14,0,0,1,28,0Z"/><path d="M238.69,164h-6v-.75a8.77,8.77,0,0,0-17.54,0V164h-6v-.75a14.75,14.75,0,0,1,29.5,0Zm-4.52-1.49h3a13.26,13.26,0,0,0-26.47,0h3a10.26,10.26,0,0,1,20.46,0Z"/><path class="cls-1" d="M233.45,163.24h-19a9.52,9.52,0,0,1,19,0Z"/><path d="M234.2,164H213.68v-.75a10.26,10.26,0,0,1,20.52,0Zm-19-1.49h17.48a8.77,8.77,0,0,0-17.48,0Z"/><path class="cls-1" d="M207.62,147.78h-5.3a21.85,21.85,0,1,0-43.7,0h-5.31a27.16,27.16,0,0,1,54.31,0Z"/><path d="M208.5,148.66h-7.07v-.88a21,21,0,1,0-41.93,0v.88h-7.07v-.88a28,28,0,0,1,56.07,0Zm-5.32-1.76h3.54a26.27,26.27,0,0,0-52.51,0h3.54a22.73,22.73,0,0,1,45.43,0Z"/><path class="cls-1" d="M202.32,147.78H197a16.55,16.55,0,0,0-33.09,0h-5.3a21.85,21.85,0,1,1,43.7,0Z"/><path d="M203.2,148.66h-7.07v-.88a15.67,15.67,0,0,0-31.33,0v.88h-7.06v-.88a22.73,22.73,0,1,1,45.46,0Zm-5.33-1.76h3.55a21,21,0,0,0-41.9,0h3.54a17.43,17.43,0,0,1,34.81,0Z"/><path class="cls-1" d="M197,147.78h-5.3a11.25,11.25,0,0,0-22.49,0h-5.3a16.55,16.55,0,0,1,33.09,0Z"/><path d="M197.89,148.66h-7.06v-.88a10.37,10.37,0,0,0-20.73,0v.88H163v-.88a17.43,17.43,0,1,1,34.85,0Zm-5.33-1.76h3.55a15.67,15.67,0,0,0-31.28,0h3.54a12.13,12.13,0,0,1,24.19,0Z"/><path class="cls-1" d="M191.71,147.78H169.22a11.25,11.25,0,0,1,22.49,0Z"/><path d="M192.6,148.66H168.34v-.88a12.13,12.13,0,0,1,24.26,0Zm-22.46-1.76h20.65a10.36,10.36,0,0,0-20.65,0Z"/><path d="M106.93,177.48l-.38-.2L106,177l-.62-.35c-.91-.51-2.21-1.27-3.78-2.26s-3.45-2.24-5.53-3.73-4.36-3.22-6.79-5.17-5-4.17-7.58-6.61-5.26-5.08-7.87-7.94-5.19-5.91-7.71-9.08c-1.23-1.62-2.46-3.24-3.66-4.91s-2.38-3.35-3.46-5.1l-1.66-2.59c-.55-.86-1.05-1.76-1.57-2.64L54.26,124c-.48-.89-1-1.78-1.43-2.67-1-1.76-1.85-3.57-2.7-5.35s-1.65-3.55-2.41-5.31-1.46-3.5-2.12-5.22l-1-2.55-.85-2.52c-1.17-3.29-2-6.49-2.86-9.41-.36-1.48-.69-2.89-1-4.24-.16-.68-.31-1.33-.47-2s-.24-1.26-.36-1.87c-.24-1.21-.45-2.34-.65-3.39-.1-.52-.2-1-.29-1.5s-.14-.94-.2-1.38l-.8-5.49,6.51-1s.43,1.87,1.18,5.16l.29,1.29q.2.68.39,1.41c.27,1,.56,2,.87,3.16.16.56.31,1.15.49,1.74s.39,1.2.6,1.82c.4,1.24.83,2.55,1.27,3.92,1,2.68,2.05,5.61,3.39,8.6l1,2.29,1.1,2.3c.74,1.55,1.49,3.13,2.35,4.69s1.67,3.18,2.63,4.74,1.85,3.18,2.89,4.73l1.51,2.36,1.62,2.3c.55.77,1.06,1.56,1.64,2.31l1.71,2.25c1.11,1.52,2.36,2.94,3.53,4.4s2.46,2.83,3.7,4.21c2.53,2.7,5.06,5.32,7.66,7.69S88.61,146,91.12,148s5,3.78,7.27,5.38,4.44,3,6.38,4.09,3.63,2.11,5,2.84,2.5,1.26,3.23,1.59c.17.09.33.16.47.22l.27.12a2.22,2.22,0,0,1,.28.12Z"/><path d="M53.57,114.7H53.4l-.51,0c-.42,0-1,0-1.73,0a49.71,49.71,0,0,1-5.92-.47,54.77,54.77,0,0,1-8.11-1.71c-1.46-.43-2.94-.92-4.42-1.51a47.39,47.39,0,0,1-4.38-2c-.72-.36-1.41-.77-2.11-1.15s-1.37-.82-2-1.26c-1.31-.88-2.57-1.79-3.72-2.74A42.9,42.9,0,0,1,17.31,101c-.47-.49-.93-1-1.36-1.44l-1.19-1.41c-.74-.92-1.39-1.78-1.93-2.56s-1-1.48-1.35-2.07L10.4,91.67l1.55-1,1.26,1.61c.39.52.94,1.09,1.52,1.77s1.32,1.38,2.12,2.14l1.27,1.15c.45.38.93.76,1.42,1.15a37.14,37.14,0,0,0,3.22,2.24,39.75,39.75,0,0,0,3.65,2c.63.32,1.3.58,1.95.88s1.33.53,2,.76a40.83,40.83,0,0,0,4.1,1.22c1.36.34,2.72.59,4,.8a50.43,50.43,0,0,0,7.26.54,44,44,0,0,0,5.07-.28c.6-.07,1.06-.13,1.35-.18l.3-.06.11,0Z"/><path d="M63.52,133.25l.12-.07L64,133c.3-.18.76-.48,1.35-.89A41.75,41.75,0,0,0,70,128.24c.91-.88,1.89-1.86,2.84-3a40.49,40.49,0,0,0,2.84-3.63,44.53,44.53,0,0,0,2.61-4.2,43,43,0,0,0,2.16-4.66l.47-1.21.4-1.23c.29-.81.49-1.65.72-2.48a44.62,44.62,0,0,0,1-5,47.55,47.55,0,0,0,.4-4.75c0-.38,0-.76,0-1.13s0-.73,0-1.09c0-.72,0-1.42,0-2.09-.1-1.33-.15-2.56-.32-3.64s-.23-2-.39-2.81C82.37,85.85,82.2,85,82.2,85L84,84.49s.27.89.73,2.45c.26.77.46,1.74.73,2.85s.5,2.37.76,3.76c.13.69.19,1.43.3,2.18l.15,1.16c0,.39,0,.79.08,1.19a45.13,45.13,0,0,1,.14,5.13,48,48,0,0,1-.46,5.51c-.14.94-.27,1.89-.48,2.82l-.3,1.42-.37,1.4a49.07,49.07,0,0,1-1.83,5.49A54.29,54.29,0,0,1,81,124.94a49.37,49.37,0,0,1-2.78,4.5c-1,1.4-2,2.64-2.88,3.79a49.81,49.81,0,0,1-5,5.17c-.66.59-1.21,1-1.61,1.35l-.5.38-.16.12Z"/><path d="M99,210.58l.24-.39a3.69,3.69,0,0,1,.29-.44c.09-.14.2-.28.29-.4a12.21,12.21,0,0,1,1.63-1.72,21.63,21.63,0,0,1,5.25-3.37c4.31-2,10.06-3.42,16.71-4.13a142.63,142.63,0,0,1,22.22-.4c2,.11,4,.23,6.06.4l1.44.1,1.51.06c.93,0,1.74,0,2.7,0a41.93,41.93,0,0,0,11.09-1.85,46.61,46.61,0,0,0,10.44-4.7A59.61,59.61,0,0,0,188,187a85,85,0,0,0,13.35-15.63,106.36,106.36,0,0,0,7.36-12.79c.78-1.61,1.35-2.89,1.73-3.76l.54-1.32,3.29,1.13-.49,1.48c-.33.95-.83,2.32-1.52,4a112,112,0,0,1-6.72,13.82,89.81,89.81,0,0,1-13.07,17.65,66.78,66.78,0,0,1-9.59,8.26,54.74,54.74,0,0,1-11.73,6.29A50.63,50.63,0,0,1,158,209.27c-1.08.13-2.31.19-3.41.25l-3.09.1q-3,.1-5.81.29a132.17,132.17,0,0,0-20.23,2.67,60.85,60.85,0,0,0-7.36,2.14,26.76,26.76,0,0,0-4.7,2.25,5.69,5.69,0,0,0-1.69,1.4c-.06.08,0,.07.13-.08l.1-.13s0-.07.16-.24.11-.2.15-.25v0Z"/><path class="cls-1" d="M229.94,182.5h-6a24.74,24.74,0,1,0-49.48,0h-6a30.74,30.74,0,0,1,61.48,0Z"/><path d="M230.94,183.49h-8v-1a23.74,23.74,0,1,0-47.48,0v1h-8v-1a31.74,31.74,0,0,1,63.48,0Zm-6-2h4a29.75,29.75,0,0,0-59.46,0h4a25.74,25.74,0,0,1,51.44,0Z"/><path class="cls-1" d="M223.94,182.5h-6a18.74,18.74,0,1,0-37.47,0h-6a24.74,24.74,0,1,1,49.48,0Z"/><path d="M224.94,183.49h-8v-1a17.74,17.74,0,1,0-35.48,0v1h-8v-1a25.74,25.74,0,1,1,51.47,0Zm-6-2h4a23.74,23.74,0,0,0-47.44,0h4a19.74,19.74,0,0,1,39.42,0Z"/><path class="cls-1" d="M217.94,182.5h-6a12.73,12.73,0,0,0-25.46,0h-6a18.74,18.74,0,1,1,37.47,0Z"/><path d="M218.93,183.49h-8v-1a11.73,11.73,0,0,0-23.46,0v1h-8v-1a19.73,19.73,0,0,1,39.46,0Zm-6-2h4a17.74,17.74,0,0,0-35.42,0h4a13.73,13.73,0,0,1,27.39,0Z"/><path class="cls-1" d="M211.93,182.5H186.47a12.73,12.73,0,0,1,25.46,0Z"/><path d="M212.93,183.49H185.47v-1a13.73,13.73,0,0,1,27.46,0Zm-25.42-2h23.38a11.73,11.73,0,0,0-23.38,0Z"/><path class="cls-1" d="M78,87.73h-6.7a27.58,27.58,0,0,0-55.16,0H9.49a34.28,34.28,0,0,1,68.55,0Z"/><path d="M79.15,88.84H70.23V87.73a26.47,26.47,0,0,0-52.94,0v1.11H8.38V87.73a35.39,35.39,0,0,1,70.77,0Zm-6.72-2.22H76.9a33.16,33.16,0,0,0-66.28,0h4.47a28.69,28.69,0,0,1,57.34,0Z"/><path class="cls-1" d="M71.34,87.73H64.65a20.89,20.89,0,0,0-41.78,0H16.18a27.58,27.58,0,0,1,55.16,0Z"/><path d="M72.45,88.84H63.54V87.73a19.78,19.78,0,0,0-39.55,0v1.11H15.07V87.73a28.69,28.69,0,0,1,57.38,0Zm-6.72-2.22h4.48a26.47,26.47,0,0,0-52.89,0h4.47a22,22,0,0,1,43.94,0Z"/><path class="cls-1" d="M64.65,87.73H58a14.2,14.2,0,0,0-28.39,0h-6.7a20.89,20.89,0,0,1,41.78,0Z"/><path d="M65.76,88.84H56.84V87.73a13.08,13.08,0,0,0-26.16,0v1.11H21.76V87.73a22,22,0,0,1,44,0ZM59,86.62h4.48a19.78,19.78,0,0,0-39.49,0H28.5a15.31,15.31,0,0,1,30.53,0Z"/><path class="cls-1" d="M58,87.73H29.57a14.2,14.2,0,0,1,28.39,0Z"/><path d="M59.07,88.84H28.46V87.73a15.31,15.31,0,0,1,30.61,0ZM30.73,86.62H56.8a13.08,13.08,0,0,0-26.07,0Z"/><path class="cls-1" d="M48.76,103.18H44.08a19.31,19.31,0,0,0-38.62,0H.78a24,24,0,0,1,48,0Z"/><path d="M49.54,104H43.3v-.77a18.53,18.53,0,0,0-37.06,0V104H0v-.77a24.77,24.77,0,0,1,49.54,0Zm-4.7-1.55H48a23.21,23.21,0,0,0-46.4,0H4.7a20.08,20.08,0,0,1,40.14,0Z"/><path class="cls-1" d="M44.08,103.18H39.39a14.62,14.62,0,0,0-29.24,0H5.46a19.31,19.31,0,0,1,38.62,0Z"/><path d="M44.85,104H38.61v-.77a13.84,13.84,0,0,0-27.68,0V104H4.69v-.77a20.08,20.08,0,1,1,40.16,0Zm-4.7-1.55h3.13a18.53,18.53,0,0,0-37,0H9.39a15.4,15.4,0,0,1,30.76,0Z"/><path class="cls-1" d="M39.39,103.18H34.71a9.94,9.94,0,0,0-19.88,0H10.15a14.62,14.62,0,0,1,29.24,0Z"/><path d="M40.17,104H33.93v-.77a9.16,9.16,0,1,0-18.32,0V104H9.37v-.77a15.4,15.4,0,0,1,30.8,0Zm-4.71-1.55h3.13a13.84,13.84,0,0,0-27.64,0h3.14a10.71,10.71,0,0,1,21.37,0Z"/><path class="cls-1" d="M34.71,103.18H14.83a9.94,9.94,0,0,1,19.88,0Z"/><path d="M35.49,104H14.06v-.77a10.72,10.72,0,1,1,21.43,0ZM15.65,102.4H33.9a9.16,9.16,0,0,0-18.25,0Z"/><path class="cls-1" d="M192,41h-7.76a32,32,0,0,0-64,0h-7.77A39.76,39.76,0,0,1,192,41Z"/><path d="M193.3,42.33H183V41a30.71,30.71,0,0,0-61.41,0v1.29H111.2V41a41.05,41.05,0,0,1,82.1,0Zm-7.79-2.58h5.19a38.47,38.47,0,0,0-76.89,0H119a33.29,33.29,0,0,1,66.52,0Z"/><path class="cls-1" d="M184.25,41h-7.77A24.23,24.23,0,0,0,128,41h-7.76a32,32,0,0,1,64,0Z"/><path d="M185.54,42.33H175.19V41a22.94,22.94,0,0,0-45.88,0v1.29H119V41a33.29,33.29,0,0,1,66.57,0Zm-7.8-2.58h5.19a30.71,30.71,0,0,0-61.36,0h5.2a25.52,25.52,0,0,1,51,0Z"/><path class="cls-1" d="M176.48,41h-7.76a16.47,16.47,0,0,0-32.93,0H128a24.23,24.23,0,0,1,48.46,0Z"/><path d="M177.77,42.33H167.43V41a15.18,15.18,0,0,0-30.35,0v1.29H126.73V41a25.52,25.52,0,0,1,51,0ZM170,39.75h5.2a22.94,22.94,0,0,0-45.81,0h5.2a17.75,17.75,0,0,1,35.41,0Z"/><path class="cls-1" d="M168.72,41H135.79a16.47,16.47,0,0,1,32.93,0Z"/><path d="M170,42.33H134.5V41A17.76,17.76,0,0,1,170,41Zm-32.88-2.58h30.25a15.18,15.18,0,0,0-30.25,0Z"/><path d="M149.2,89.67l-.51-.26c-.32-.17-.77-.41-1.32-.73-1.1-.63-2.63-1.55-4.38-2.77a64.51,64.51,0,0,1-5.71-4.47c-1-.87-2-1.81-3-2.81s-1.92-2-2.83-3.12-1.77-2.22-2.54-3.38c-.4-.57-.77-1.15-1.12-1.74s-.69-1.17-1-1.75a36.52,36.52,0,0,1-1.62-3.45c-.24-.56-.42-1.12-.61-1.65s-.35-1.07-.49-1.58c-.31-1-.48-2-.66-2.78s-.24-1.57-.32-2.17c-.09-1.21-.14-1.9-.14-1.9l1.7-.2.41,1.74c.16.54.36,1.2.6,1.94s.57,1.57,1,2.43c.19.44.4.89.65,1.34s.48.93.78,1.39A31,31,0,0,0,130,66.6c.37.46.72,1,1.13,1.41s.8.93,1.23,1.38c.84.92,1.77,1.78,2.71,2.63S137,73.65,138,74.39s2,1.44,3,2.08a56.42,56.42,0,0,0,5.66,3.15c1.7.82,3.15,1.42,4.16,1.81.5.19.89.33,1.14.41l.37.12Z"/><path class="cls-1" d="M155.76,69.39H149.6a25.35,25.35,0,0,0-50.7,0H92.75a31.51,31.51,0,0,1,63,0Z"/><path d="M156.78,70.41h-8.2v-1a24.33,24.33,0,0,0-48.66,0v1h-8.2v-1a32.53,32.53,0,0,1,65.06,0Zm-6.17-2h4.11a30.48,30.48,0,0,0-60.93,0H97.9a26.37,26.37,0,0,1,52.71,0Z"/><path class="cls-1" d="M149.6,69.39h-6.15a19.2,19.2,0,0,0-38.4,0H98.9a25.35,25.35,0,0,1,50.7,0Z"/><path d="M150.63,70.41h-8.2v-1a18.18,18.18,0,0,0-36.36,0v1H97.88v-1a26.38,26.38,0,0,1,52.75,0Zm-6.18-2h4.11a24.33,24.33,0,0,0-48.62,0h4.11a20.23,20.23,0,0,1,40.4,0Z"/><path class="cls-1" d="M143.45,69.39H137.3a13.05,13.05,0,0,0-26.1,0h-6.15a19.2,19.2,0,0,1,38.4,0Z"/><path d="M144.47,70.41h-8.19v-1a12,12,0,0,0-24,0v1H104v-1a20.22,20.22,0,0,1,40.44,0Zm-6.18-2h4.11a18.18,18.18,0,0,0-36.3,0h4.12a14.07,14.07,0,0,1,28.07,0Z"/><path class="cls-1" d="M137.3,69.39H111.2a13.05,13.05,0,0,1,26.1,0Z"/><path d="M138.32,70.41H110.18v-1a14.07,14.07,0,0,1,28.14,0Zm-26-2h24a12,12,0,0,0-24,0Z"/><path class="cls-1" d="M113.56,114.64H107a27,27,0,0,0-53.94,0H46.53a33.52,33.52,0,0,1,67,0Z"/><path d="M114.65,115.73h-8.72v-1.09a25.88,25.88,0,0,0-51.76,0v1.09H45.45v-1.09a34.6,34.6,0,0,1,69.2,0Zm-6.57-2.18h4.37a32.42,32.42,0,0,0-64.81,0H52a28.06,28.06,0,0,1,56.07,0Z"/><path class="cls-1" d="M107,114.64h-6.55a20.43,20.43,0,0,0-40.85,0H53.08a27,27,0,0,1,53.94,0Z"/><path d="M108.1,115.73H99.38v-1.09a19.34,19.34,0,0,0-38.67,0v1.09H52v-1.09a28.06,28.06,0,0,1,56.11,0Zm-6.57-2.18h4.38a25.88,25.88,0,0,0-51.72,0h4.37a21.51,21.51,0,0,1,43,0Z"/><path class="cls-1" d="M100.47,114.64H93.93a13.88,13.88,0,0,0-27.76,0H59.62a20.43,20.43,0,0,1,40.85,0Z"/><path d="M101.56,115.73H92.84v-1.09a12.79,12.79,0,0,0-25.58,0v1.09H58.53v-1.09a21.52,21.52,0,0,1,43,0ZM95,113.55h4.37a19.34,19.34,0,0,0-38.61,0h4.38a15,15,0,0,1,29.86,0Z"/><path class="cls-1" d="M93.93,114.64H66.17a13.88,13.88,0,0,1,27.76,0Z"/><path d="M95,115.73H65.08v-1.09a15,15,0,0,1,29.93,0ZM67.3,113.55H92.79a12.79,12.79,0,0,0-25.49,0Z"/><path d="M137.66,118.9l.57.06c.39.05,1,.1,1.74.15,1.53.11,3.73.2,6.38.17a78.45,78.45,0,0,0,9-.61c.82-.1,1.65-.24,2.49-.36s1.69-.28,2.53-.47c1.69-.35,3.4-.76,5.06-1.28a48.63,48.63,0,0,0,4.88-1.75,39.2,39.2,0,0,0,4.44-2.24,23.41,23.41,0,0,0,2-1.26l.95-.65c.3-.22.59-.46.87-.68l.86-.68c.27-.22.52-.47.77-.7a17.25,17.25,0,0,0,1.43-1.39c.43-.47.88-.9,1.24-1.35l1-1.3c.62-.84,1.1-1.61,1.52-2.23l1.15-2.07,3.92,1.8-1.16,2.46c-.43.75-.93,1.69-1.58,2.71l-1.1,1.59c-.39.56-.87,1.09-1.33,1.68a22.44,22.44,0,0,1-1.56,1.74c-.28.29-.55.59-.86.88s-.61.57-.93.85-.63.59-1,.87l-1,.83c-.69.58-1.45,1.09-2.21,1.62a46.34,46.34,0,0,1-4.91,2.91,56.84,56.84,0,0,1-5.36,2.35c-1.83.7-3.69,1.29-5.53,1.8-.92.27-1.84.48-2.75.71s-1.82.41-2.71.58a87,87,0,0,1-9.8,1.35c-2.89.22-5.31.29-7,.28-.85,0-1.53,0-2,0l-.75,0Z"/><path class="cls-1" d="M220.06,111.62h-6.15a25.35,25.35,0,1,0-50.7,0h-6.16a31.51,31.51,0,0,1,63,0Z"/><path d="M221.09,112.64h-8.2v-1a24.33,24.33,0,1,0-48.66,0v1H156v-1a32.53,32.53,0,0,1,65.06,0Zm-6.18-2H219a30.48,30.48,0,0,0-60.93,0h4.11a26.38,26.38,0,0,1,52.71,0Z"/><path class="cls-1" d="M213.91,111.62h-6.15a19.2,19.2,0,1,0-38.4,0h-6.15a25.35,25.35,0,1,1,50.7,0Z"/><path d="M214.93,112.64h-8.19v-1a18.18,18.18,0,1,0-36.36,0v1h-8.2v-1a26.38,26.38,0,0,1,52.75,0Zm-6.17-2h4.11a24.33,24.33,0,0,0-48.62,0h4.11a20.23,20.23,0,0,1,40.4,0Z"/><path class="cls-1" d="M207.76,111.62h-6.15a13.05,13.05,0,1,0-26.1,0h-6.15a19.2,19.2,0,1,1,38.4,0Z"/><path d="M208.78,112.64h-8.2v-1a12,12,0,1,0-24,0v1h-8.2v-1a20.22,20.22,0,1,1,40.44,0Zm-6.19-2h4.12a18.18,18.18,0,0,0-36.3,0h4.12a14.07,14.07,0,0,1,28.06,0Z"/><path class="cls-1" d="M201.61,111.62h-26.1a13,13,0,1,1,26.1,0Z"/><path d="M202.63,112.64H174.49v-1a14.07,14.07,0,1,1,28.14,0Zm-26-2h24a12,12,0,0,0-24,0Z"/></g></g></svg>