<svg xmlns="http://www.w3.org/2000/svg" viewBox="0 0 116.64 353.95"><defs><style>.cls-1,.cls-2{fill:none;stroke:#000;stroke-width:4px;}.cls-1{stroke-linecap:round;stroke-linejoin:round;}.cls-2{stroke-miterlimit:10;}</style></defs><title>Asset 7</title><g id="Layer_2" data-name="Layer 2"><g id="Layer_1-2" data-name="Layer 1"><path class="cls-1" d="M50.47,102.13a7.85,7.85,0,0,1,15.7,0"/><path class="cls-1" d="M50.47,282.68a7.85,7.85,0,0,0,15.7,0"/><polyline class="cls-1" points="58.33 290.54 58.33 310.22 50.12 321.17 58.33 321.17"/><polyline class="cls-1" points="66.52 321.17 66.52 351.95 58.31 351.95 58.33 351.95 50.12 351.95 50.12 321.17"/><polyline class="cls-1" points="58.32 321.17 50.11 321.17 58.32 310.22 58.32 290.54 58.32 310.22 66.53 321.17 58.33 321.17"/><rect class="cls-2" x="2" y="113.38" width="112.64" height="158.05" rx="25.29"/><path class="cls-2" d="M99.79,246.14c0,14-8.33,25.29-18.62,25.29H35.47c-10.28,0-18.62-11.32-18.62-25.29V138.67c0-14,8.34-25.29,18.62-25.29h45.7c10.29,0,18.62,11.32,18.62,25.29Z"/><path class="cls-2" d="M78,246.14c0,14-3.95,25.29-8.82,25.29H47.5c-4.87,0-8.82-11.32-8.82-25.29V138.67c0-14,4-25.29,8.82-25.29H69.14C74,113.38,78,124.7,78,138.67Z"/><path class="cls-2" d="M78,113.38v-6.52c0-2.61-1.81-4.73-4-4.73H42.72c-2.23,0-4,2.12-4,4.73v6.52"/><path class="cls-2" d="M78,271.43V278c0,2.62-1.81,4.73-4,4.73H42.72c-2.23,0-4-2.11-4-4.73v-6.52"/><line class="cls-1" x1="58.32" y1="94.28" x2="58.32" y2="2"/></g></g></svg>