<svg xmlns="http://www.w3.org/2000/svg" viewBox="0 0 149.98 146.93"><defs><style>.cls-1{fill:none;stroke:#000;stroke-miterlimit:10;stroke-width:6px;}</style></defs><title>Asset 19</title><g id="Layer_2" data-name="Layer 2"><g id="Layer_1-2" data-name="Layer 1"><path class="cls-1" d="M128,96A33.83,33.83,0,0,1,73,133.64,33.82,33.82,0,0,1,20.21,92.9,33.83,33.83,0,0,1,42.64,30.12a33.82,33.82,0,0,1,66.63,1.95A33.81,33.81,0,0,1,128,96Z"/><path d="M86.25,95.9a5.54,5.54,0,0,0-5.56-4.1l-1.07-4a13.3,13.3,0,0,0,7.9-7.9l4,1.07a5.54,5.54,0,1,0,.64-2.38l-4-1.06a13.35,13.35,0,0,0-2.88-10.79l2.91-2.91a5.54,5.54,0,1,0-1.74-1.74L83.53,65a13.33,13.33,0,0,0-10.79-2.89l-1.07-4a5.54,5.54,0,1,0-2.38.64l1.07,4a13.2,13.2,0,0,0-7.89,7.89l-4-1.06A5.52,5.52,0,1,0,57.85,72l4,1.06a13.35,13.35,0,0,0,2.88,10.79L61.8,86.74a5.55,5.55,0,1,0,1.74,1.74l2.91-2.91a13.33,13.33,0,0,0,10.79,2.89l1.07,4a5.54,5.54,0,1,0,7.94,3.46Z"/></g></g></svg>