<svg xmlns="http://www.w3.org/2000/svg" viewBox="0 0 285.05 116.75"><title>Asset 15</title><g id="Layer_2" data-name="Layer 2"><g id="Layer_1-2" data-name="Layer 1"><path d="M269.7,63.71a27.82,27.82,0,0,0-12-2.77,25.89,25.89,0,0,0-11.19,2.53,11.36,11.36,0,0,1-4.9,1.13c-6.5,0-12.44-5.59-16.29-10.28l-.17-.21.16-.22a29.77,29.77,0,0,0,5.75-19A36.57,36.57,0,0,0,192.9,0a45.41,45.41,0,0,0-37.05,22.67l-.16.29-.3-.15a36.06,36.06,0,0,0-16.08-3.77,36.5,36.5,0,0,0-20.74,6.57l-.17.12-.19-.1a35.61,35.61,0,0,0-41.36,5,29.06,29.06,0,0,0-7.72,30.73l.11.32-.31.12a59.11,59.11,0,0,0-17.26,9.67c-7.06,6-14.74,9-22.82,9-13.26,0-23.1-8-24.17-9a3,3,0,0,0-3.58-.11A2.86,2.86,0,0,0,.28,75c.59,1.22,14.79,29.94,49.32,34a50.2,50.2,0,0,0,6.06.36,60.59,60.59,0,0,0,20.52-3.9l.18-.07.16.13a49.48,49.48,0,0,0,57.9,3.65l.19-.12.19.12a24.76,24.76,0,0,0,13.64,4.08c.53,0,1.12,0,1.79-.07a30.33,30.33,0,0,0,21.94-12l.15-.2.24.08A53.86,53.86,0,0,0,220.9,94.7l.15-.11.17.07a42.66,42.66,0,0,0,15.5,3.12c10.69,0,19.24-4.73,25.49-8.84,11.42-7.5,17-6,18.26-5.51h0l.08,0a2.85,2.85,0,0,0,3.21,0,2.77,2.77,0,0,0,1.16-3C283.38,74.05,277.25,67.3,269.7,63.71Zm7,13.6c-5.06.24-11,2.56-17.6,6.9-5.94,3.91-13.24,7.91-22.35,7.91a35.87,35.87,0,0,1-11.5-2,43.81,43.81,0,0,1-4.56-1.83l-.35-.17-.32.24A45.24,45.24,0,0,1,216.2,91l-.27.15a48.18,48.18,0,0,1-41.31,4.6c-1.3-.45-2.61-1-4-1.62l-.55-.25-.29.54a22.39,22.39,0,0,1-2.34,3.61,24.69,24.69,0,0,1-17.62,9.41,19.13,19.13,0,0,1-11.05-2.6l-.26-.14a18.67,18.67,0,0,1-3.26-2.47,19.2,19.2,0,0,1-1.67-1.81,19,19,0,0,1-4.25-10.7A14.79,14.79,0,0,1,143,74a11.26,11.26,0,0,1,12,10.4,8.45,8.45,0,0,1-7.79,9,6.2,6.2,0,0,1-6.61-5.72A2.86,2.86,0,0,0,137.75,85h-.19a2.83,2.83,0,0,0-2.6,3,11.85,11.85,0,0,0,11.76,11c.3,0,.59,0,.89,0a14.1,14.1,0,0,0,13-15.07,17,17,0,0,0-18.09-15.62,20.42,20.42,0,0,0-18.88,21.84A24.62,24.62,0,0,0,129.19,104c.21.27.42.52.64.76l.28.32-.37.21a41.21,41.21,0,0,1-5.38,2.63,43.89,43.89,0,0,1-42.72-5.67l-.27-.19a39.12,39.12,0,0,1-3.47-3l-.29-.29-.39.15c-1.72.66-3.06,1.15-4.35,1.58l-.17.06a52.3,52.3,0,0,1-17,3,48,48,0,0,1-5.45-.32,58.19,58.19,0,0,1-37-19.66l-1-1.08,1.34.53a42.39,42.39,0,0,0,15.41,3c9.37,0,18.19-3.46,26.23-10.28A53.86,53.86,0,0,1,71.4,67l.27-.1.15.24a27.8,27.8,0,0,0,3.46,4.56,23.59,23.59,0,0,0,16.52,7.6c.32,0,.62,0,.94,0A23.66,23.66,0,0,0,108.87,73a19.59,19.59,0,0,0,1.06-27.66A16.22,16.22,0,0,0,87,44.41a13.57,13.57,0,0,0-.74,19.15,2.83,2.83,0,0,0,2.08.87,2.79,2.79,0,0,0,2.07-4.71,7.91,7.91,0,0,1,.43-11.16,10.57,10.57,0,0,1,14.93.58A13.93,13.93,0,0,1,105,68.81a17.89,17.89,0,0,1-12.21,4.82h-.16l-.54,0H92a18,18,0,0,1-12.59-5.79,23.35,23.35,0,0,1,1.27-33,30,30,0,0,1,33.84-4.72,27.52,27.52,0,0,1,3.79,2.32l.42.3.4-.35a27.14,27.14,0,0,1,3.54-2.68,30.39,30.39,0,0,1,31.06-1.34,29.23,29.23,0,0,1,3.64,2.33l.68.51.31-.79a35.82,35.82,0,0,1,1.86-4A39.54,39.54,0,0,1,193.15,5.69a30.88,30.88,0,0,1,32.26,29.48,23.89,23.89,0,0,1-6.06,17.11l-.23.26a24,24,0,0,1-16.76,7.84,18.7,18.7,0,0,1-19.57-17.89,14.42,14.42,0,0,1,13.77-15.08,2.82,2.82,0,0,0,2.7-2.95,2.82,2.82,0,0,0-2.82-2.69h-.14a20.08,20.08,0,0,0-19.16,21,24.35,24.35,0,0,0,24.37,23.32l1.08,0A29.81,29.81,0,0,0,221,58.57l.27-.24.23.27c6.45,7.64,13.38,11.67,20,11.67a17.08,17.08,0,0,0,7.37-1.7,20.93,20.93,0,0,1,18.33.25,26.2,26.2,0,0,1,9.7,7.94l.37.52Z"/></g></g></svg>