<svg xmlns="http://www.w3.org/2000/svg" viewBox="0 0 148.98 152.45"><defs><style>.cls-1{fill:none;stroke:#000;stroke-linecap:round;stroke-linejoin:round;stroke-width:5px;}</style></defs><title>Asset 20</title><g id="Layer_2" data-name="Layer 2"><g id="Layer_1-2" data-name="Layer 1"><path class="cls-1" d="M136.1,90l-24.67.67L131.35,106s-13.78,12.69-18.15,26.56c-14.54-.13-30.86,9.05-30.86,9.05l-8.25-23.25L65.68,142s-16.32-9.19-30.86-9c-4.36-13.87-18.15-26.56-18.15-26.56l19.57-15-25.11-.68s3.69-18.36-.93-32.15C22,50.07,29.85,33,29.85,33L50.2,47,43.08,22.92s18.6-2.17,30.29-10.82c11.68,8.65,30.29,10.82,30.29,10.82l-7,23.66,20.72-14.21s7.81,17,19.65,25.46C132.41,71.62,136.1,90,136.1,90Z"/><path d="M85.79,78A12.18,12.18,0,1,1,73.61,65.82,12.18,12.18,0,0,1,85.79,78Z"/><path d="M73.61,24s.18.49.4,1.36.5,2.1.76,3.58a67.58,67.58,0,0,1,.84,10.87,65.36,65.36,0,0,1-.84,10.87c-.25,1.48-.53,2.72-.76,3.58s-.4,1.36-.4,1.36-.17-.49-.39-1.36-.51-2.1-.76-3.58a65.36,65.36,0,0,1-.84-10.87,67.58,67.58,0,0,1,.84-10.87c.26-1.48.53-2.72.76-3.58S73.61,24,73.61,24Z"/><path d="M22.25,61.31s.52,0,1.41,0,2.15.18,3.64.39a68.62,68.62,0,0,1,10.6,2.55A67.46,67.46,0,0,1,48,68.45c1.33.71,2.42,1.35,3.17,1.83s1.17.8,1.17.8-.52,0-1.41,0-2.16-.17-3.65-.38A67.51,67.51,0,0,1,36.67,68.1a67.42,67.42,0,0,1-10.08-4.17c-1.33-.7-2.42-1.34-3.17-1.82S22.25,61.31,22.25,61.31Z"/><path d="M41.87,121.7s.15-.5.47-1.33.83-2,1.5-3.35A70.31,70.31,0,0,1,56.61,99.43c1.08-1.05,2-1.89,2.72-2.45s1.12-.87,1.12-.87-.15.51-.47,1.34-.83,2-1.49,3.34a68,68,0,0,1-5.71,9.29,67.69,67.69,0,0,1-7.08,8.3c-1.07,1.05-2,1.89-2.71,2.45S41.87,121.7,41.87,121.7Z"/><path d="M105.36,121.7s-.43-.3-1.12-.87-1.64-1.4-2.72-2.45a68.57,68.57,0,0,1-7.07-8.3,67.37,67.37,0,0,1-5.71-9.29c-.66-1.35-1.17-2.51-1.49-3.34s-.48-1.34-.48-1.34.44.3,1.12.87,1.65,1.4,2.73,2.45a68.57,68.57,0,0,1,7.07,8.3,67.82,67.82,0,0,1,5.7,9.29c.67,1.35,1.17,2.51,1.49,3.35S105.36,121.7,105.36,121.7Z"/><path d="M125,61.31s-.41.32-1.17.8-1.84,1.12-3.17,1.83a67.46,67.46,0,0,1-10.08,4.16A67.51,67.51,0,0,1,100,70.66c-1.49.21-2.75.33-3.65.38s-1.41,0-1.41,0,.41-.32,1.17-.79,1.84-1.13,3.17-1.84a71.06,71.06,0,0,1,20.68-6.71c1.49-.21,2.75-.33,3.64-.39S125,61.31,125,61.31Z"/><path class="cls-1" d="M108.59,14.78l-7.93,26.87,23.51-16.14S133,44.84,146.48,54.42c-5.25,15.65-1.06,36.5-1.06,36.5l-28,.75L140,109.05s-15.65,14.4-20.61,30.15c-16.51-.16-35,10.28-35,10.28L75,123.07,65.49,150s-18.54-10.43-35-10.28c-5-15.75-20.61-30.14-20.61-30.14L32.06,92.45,3.55,91.69s4.2-20.85-1-36.5c13.44-9.58,22.3-28.91,22.3-28.91L47.9,42.13,39.82,14.78S61,12.32,74.21,2.5C87.47,12.32,108.59,14.78,108.59,14.78Z"/><path d="M22.25,61.31s.52,0,1.41,0,2.15.18,3.64.39a68.62,68.62,0,0,1,10.6,2.55A67.46,67.46,0,0,1,48,68.45c1.33.71,2.42,1.35,3.17,1.83s1.17.8,1.17.8-.52,0-1.41,0-2.16-.17-3.65-.38A67.51,67.51,0,0,1,36.67,68.1a67.42,67.42,0,0,1-10.08-4.17c-1.33-.7-2.42-1.34-3.17-1.82S22.25,61.31,22.25,61.31Z"/><path d="M41.87,121.7s.15-.5.48-1.33.82-2,1.49-3.35a67.82,67.82,0,0,1,5.7-9.29,68.57,68.57,0,0,1,7.07-8.3c1.08-1.05,2-1.89,2.72-2.45s1.13-.87,1.13-.87-.15.51-.48,1.34-.83,2-1.49,3.34a68,68,0,0,1-5.71,9.29,68.57,68.57,0,0,1-7.07,8.3c-1.08,1.05-2,1.89-2.72,2.45S41.87,121.7,41.87,121.7Z"/><path d="M105.36,121.7s-.43-.3-1.12-.87-1.64-1.4-2.71-2.45a70.38,70.38,0,0,1-12.79-17.59c-.66-1.35-1.16-2.51-1.49-3.34s-.47-1.34-.47-1.34.43.3,1.12.87,1.64,1.4,2.72,2.45A70.31,70.31,0,0,1,103.39,117c.67,1.35,1.17,2.51,1.49,3.35S105.36,121.7,105.36,121.7Z"/><path d="M125,61.31s-.41.32-1.17.8-1.84,1.12-3.17,1.83a67.75,67.75,0,0,1-10.07,4.16A67.6,67.6,0,0,1,100,70.66c-1.49.21-2.75.33-3.64.38s-1.42,0-1.42,0,.42-.32,1.17-.79,1.84-1.13,3.17-1.84a71.06,71.06,0,0,1,20.68-6.71c1.49-.21,2.75-.33,3.64-.39S125,61.31,125,61.31Z"/><path d="M73.62,24s.17.49.39,1.36.5,2.1.76,3.58a68.65,68.65,0,0,1,.85,10.87,67.58,67.58,0,0,1-.84,10.87c-.26,1.48-.54,2.72-.77,3.58s-.39,1.36-.39,1.36-.18-.49-.4-1.36-.51-2.1-.76-3.58a65.36,65.36,0,0,1-.84-10.87,67.58,67.58,0,0,1,.84-10.87c.26-1.48.53-2.72.76-3.58S73.62,24,73.62,24Z"/></g></g></svg>